<?xml version="1.0" encoding="UTF-8" standalone="no"?>
<svg
   xmlns:dc="http://purl.org/dc/elements/1.1/"
   xmlns:cc="http://creativecommons.org/ns#"
   xmlns:rdf="http://www.w3.org/1999/02/22-rdf-syntax-ns#"
   xmlns:svg="http://www.w3.org/2000/svg"
   xmlns="http://www.w3.org/2000/svg"
   xmlns:sodipodi="http://sodipodi.sourceforge.net/DTD/sodipodi-0.dtd"
   xmlns:inkscape="http://www.inkscape.org/namespaces/inkscape"
   viewBox="0 0 870 205"
   fill="none"
   version="1.1"
   id="svg36"
   sodipodi:docname="logo-white.svg"
   width="870"
   height="205"
   inkscape:version="1.0 (4035a4fb49, 2020-05-01)">
  <metadata
     id="metadata42">
    <rdf:RDF>
      <cc:Work
         rdf:about="">
        <dc:format>image/svg+xml</dc:format>
        <dc:type
           rdf:resource="http://purl.org/dc/dcmitype/StillImage" />
        <dc:title />
      </cc:Work>
    </rdf:RDF>
  </metadata>
  <defs
     id="defs40" />
  <sodipodi:namedview
     inkscape:document-rotation="0"
     pagecolor="#ffffff"
     bordercolor="#666666"
     borderopacity="1"
     objecttolerance="10"
     gridtolerance="10"
     guidetolerance="10"
     inkscape:pageopacity="0"
     inkscape:pageshadow="2"
     inkscape:window-width="1920"
     inkscape:window-height="1017"
     id="namedview38"
     showgrid="false"
     inkscape:zoom="0.51155518"
     inkscape:cx="784.83194"
     inkscape:cy="99.725085"
     inkscape:window-x="-8"
     inkscape:window-y="-8"
     inkscape:window-maximized="1"
     inkscape:current-layer="g1147" />
  <style
     id="style952"
     type="text/css">
	.st0{fill:url(#SVGID_1_);}
	.st1{fill:url(#SVGID_2_);}
	.st2{fill:url(#SVGID_3_);}
	.st3{fill:url(#SVGID_4_);}
	.st4{fill:#2DE59D;}
	.st5{fill:#070707;}
	.st6{font-family:'Quicksand-Regular';}
	.st7{font-size:112px;}
	.st8{letter-spacing:11;}
	.st9{fill:#005779;}
	.st10{font-family:'Roboto-Black';}
</style>
  <style
     id="style1037"
     type="text/css">
	.st0{fill:url(#SVGID_1_);}
	.st1{fill:url(#SVGID_2_);}
	.st2{fill:url(#SVGID_3_);}
	.st3{fill:url(#SVGID_4_);}
	.st4{fill:#2DE59D;}
	.st5{fill:#070707;}
	.st6{fill:#005779;}
</style>
  <g
     id="g1147"
     transform="matrix(0.90528957,0,0,0.90528957,-30.474046,-237.68844)">
    <g
       id="Calque_1">
      <linearGradient
         y2="376.87561"
         x2="232"
         y1="376.87561"
         x1="52"
         gradientUnits="userSpaceOnUse"
         id="SVGID_1_">
        <stop
           id="stop1039"
           style="stop-color:#26658A"
           offset="0.5" />
        <stop
           id="stop1041"
           style="stop-color:#2D729C"
           offset="1" />
        <stop
           id="stop1043"
           style="stop-color:#2D729C"
           offset="1" />
      </linearGradient>
      <path
         id="path1046"
         d="m 232,326.8 c 0,-1.3 -0.5,-2 -1.6,-2.6 -10,-5.7 -20,-11.5 -30,-17.2 -19,-10.9 -37.9,-21.9 -56.9,-32.8 -1.1,-0.6 -2,-0.6 -3.1,0 -10.3,6 -20.7,11.9 -31,17.9 -18.6,10.7 -37.1,21.4 -55.7,32.1 -1.3,0.7 -1.7,1.6 -1.7,3 0.1,16.5 0,33.1 0,49.6 0,16.6 0,33.3 0,49.9 0,1.4 0.4,2.2 1.6,2.9 11.4,6.5 22.7,13 34,19.5 17.7,10.2 35.4,20.4 53,30.6 1,0.6 1.7,0.6 2.7,0 15.3,-8.8 30.6,-17.6 45.9,-26.4 13.7,-7.9 27.4,-15.8 41.1,-23.7 1.1,-0.7 1.7,-1.4 1.7,-2.7 0,-33.4 0,-66.7 0,-100.1 z m -8.6,98.6 c -12.7,7.3 -25.3,14.6 -37.9,21.8 -14.1,8.1 -28.2,16.2 -42.3,24.4 -0.9,0.5 -1.6,0.5 -2.4,0 -16.3,-9.4 -32.6,-18.8 -48.9,-28.2 -10.4,-6 -20.9,-12 -31.3,-18 -1.2,-0.7 -1.5,-1.4 -1.5,-2.7 0,-15.3 0,-30.7 0,-46 0,-15.3 0,-30.5 0,-45.8 0,-1.3 0.4,-2.1 1.6,-2.8 17.1,-9.8 34.3,-19.7 51.4,-29.6 9.5,-5.5 19.1,-11 28.6,-16.5 1,-0.6 1.8,-0.6 2.8,0 17.5,10.1 35,20.2 52.4,30.3 9.2,5.3 18.4,10.6 27.7,15.9 1,0.6 1.4,1.2 1.4,2.4 0,30.7 0,61.5 0,92.2 0,1.3 -0.5,2 -1.6,2.6 z"
         class="st0"
         style="fill:#005779;fill-opacity:1" />
    </g>
    <g
       id="Calque_2">
      <g
         id="g1078">
        <linearGradient
           y2="372.0499"
           x2="121.4298"
           y1="322.9537"
           x1="149.7755"
           gradientUnits="userSpaceOnUse"
           id="SVGID_2_">
          <stop
             id="stop1049"
             style="stop-color:#2D729C;stop-opacity:0.9"
             offset="0" />
          <stop
             id="stop1051"
             style="stop-color:#2D729C"
             offset="0.4492" />
          <stop
             id="stop1053"
             style="stop-color:#396394;stop-opacity:0.9"
             offset="0.9599" />
        </linearGradient>
        <path
           id="path1056"
           d="m 141.4,326.6 c 0,0 4.2,0.4 6.3,0.6 6.7,0.8 13.3,2.2 19.2,5.6 2.2,1.2 4.1,2.6 5.5,4.8 0.7,1.2 1.1,2.4 1.1,3.8 0,2 0,4 0,6 0,0.4 -0.1,0.9 -0.3,1.3 -2.7,5.3 -5.4,10.6 -8.1,15.8 -0.2,0.4 -0.7,0.8 -1.1,1 -5.6,2.4 -11.5,3.6 -17.5,4.3 -7.8,0.8 -15.5,0.7 -23.2,-0.6 -6.2,-1 -12.2,-2.6 -17.5,-6.2 -1.9,-1.3 -3.7,-2.9 -4.4,-5.2 -0.3,-0.9 -0.4,-1.9 -0.4,-2.8 0,-4 0.1,-8 -0.1,-12 -0.2,-4 1.7,-6.8 4.8,-8.9 4.4,-3 9.5,-4.7 14.7,-5.6 3.9,-0.7 7.9,-1 11.9,-1.5 l 5,-0.3 z m -4.4,25.5 c 7.4,-0.1 14.4,-0.7 21.3,-2.9 3.6,-1.1 7.1,-2.4 9.9,-5 2.3,-2.1 2.2,-4 0,-6.1 -2.2,-2 -4.9,-3.2 -7.6,-4.2 -5.7,-2.1 -11.5,-3 -17.5,-3.4 -9.1,-0.6 -18.1,0 -26.8,2.6 -3.6,1.1 -7.1,2.4 -10,5.1 -2.2,2 -2.2,3.9 0,6 2.2,2 4.8,3.2 7.5,4.2 7.5,2.8 15.4,3.6 23.2,3.7 z"
           class="st1"
           style="fill:#005779;fill-opacity:1" />
        <linearGradient
           y2="415.70529"
           x2="121.5553"
           y1="381.68069"
           x1="141.1994"
           gradientUnits="userSpaceOnUse"
           id="SVGID_3_">
          <stop
             id="stop1058"
             style="stop-color:#2D729C;stop-opacity:0.9"
             offset="0" />
          <stop
             id="stop1060"
             style="stop-color:#2D729C"
             offset="0.4492" />
          <stop
             id="stop1062"
             style="stop-color:#396394;stop-opacity:0.9"
             offset="0.9599" />
        </linearGradient>
        <path
           id="path1065"
           d="m 166.1,396.1 c -0.6,2.5 -1.2,4.8 -1.8,7.2 -0.5,1.8 -1,3.7 -1.4,5.5 -0.1,0.7 -0.5,1 -1.1,1.2 -6.1,2.2 -12.5,3.3 -18.9,3.7 -7.8,0.5 -15.6,0.1 -23.2,-1.6 -5,-1.1 -9.8,-2.6 -14,-5.5 -1.9,-1.3 -3.6,-2.8 -4.3,-5.1 -0.2,-0.7 -0.4,-1.5 -0.4,-2.3 0,-4 0,-8.1 0,-12.1 0,-0.1 0,-0.3 0.1,-0.4 0.7,1 1.2,2.1 1.9,3 2.5,2.9 5.7,4.5 9.2,5.8 6.7,2.6 13.8,3.6 20.9,3.9 8.2,0.4 16.3,-0.1 24.2,-2.4 2.8,-1 5.7,-0.9 8.8,-0.9 z"
           class="st2"
           style="fill:#005779;fill-opacity:1" />
        <linearGradient
           y2="391.92221"
           x2="118.0281"
           y1="360.5636"
           x1="136.133"
           gradientUnits="userSpaceOnUse"
           id="SVGID_4_">
          <stop
             id="stop1067"
             style="stop-color:#2D729C;stop-opacity:0.9"
             offset="0" />
          <stop
             id="stop1069"
             style="stop-color:#2D729C"
             offset="0.4492" />
          <stop
             id="stop1071"
             style="stop-color:#396394;stop-opacity:0.9"
             offset="0.9599" />
        </linearGradient>
        <path
           id="path1074"
           d="m 100.9,364.7 c 2.2,4.9 6.6,7 11.2,8.7 6.5,2.5 13.3,3.6 20.2,3.9 8.3,0.4 16.6,-0.1 24.6,-2.2 0.9,-0.2 1.9,-0.5 2.9,-0.8 -0.2,0.4 -0.3,0.7 -0.4,1 -2.5,4.9 -5.1,9.8 -7.5,14.7 -0.3,0.6 -0.7,0.9 -1.4,1 -7.4,1.1 -14.8,1.3 -22.3,0.5 -5.5,-0.6 -11,-1.6 -16.2,-3.6 -3.4,-1.3 -6.7,-2.9 -9.2,-5.8 -1.1,-1.3 -1.9,-2.7 -1.9,-4.5 0,-4.2 0,-8.6 0,-12.9 z"
           class="st3"
           style="fill:#005779;fill-opacity:1" />
        <path
           id="path1076"
           d="m 171.5,391.9 c -5.3,0 -10.5,0 -15.8,0 5.9,-11.5 11.8,-22.9 17.6,-34.3 0.1,0 0.2,0 0.2,0.1 -1.9,9.7 -3.9,19.4 -5.8,29.2 5.3,0 10.4,0 15.8,0 -7.3,15.1 -14.6,30.1 -21.9,45 -0.1,0 -0.1,0 -0.2,-0.1 3.4,-13.2 6.7,-26.5 10.1,-39.9 z"
           class="st4" />
      </g>
      <g
         id="g1088">
        <path
           id="path1080"
           d="m 294.1,416.7 c -4.1,-1.8 -8.2,-4.6 -12,-8.4 -0.9,-0.7 -1.3,-1.6 -1.3,-2.7 0,-0.9 0.4,-1.7 1.1,-2.5 0.7,-0.7 1.5,-1.1 2.4,-1.1 0.9,0 1.7,0.4 2.5,1.1 5.8,6.4 13.1,9.6 21.8,9.6 5.4,0 9.8,-1.3 13.4,-3.8 3.5,-2.5 5.3,-5.9 5.3,-10 0,-3.2 -0.9,-5.9 -2.6,-8 -1.8,-2.1 -4.1,-3.9 -6.9,-5.2 -2.8,-1.3 -6.5,-2.7 -10.9,-4.1 -4.8,-1.4 -8.8,-3 -12,-4.7 -3.2,-1.7 -5.9,-4 -7.9,-6.9 -2,-2.9 -3,-6.5 -3,-10.9 0,-4 1.1,-7.5 3.2,-10.5 2.1,-3.1 5.1,-5.5 9,-7.2 3.8,-1.8 8.3,-2.6 13.3,-2.6 4.6,0 8.8,0.8 12.8,2.3 4,1.5 7.2,3.7 9.6,6.6 1.1,1.3 1.7,2.4 1.7,3.2 0,0.8 -0.4,1.6 -1.1,2.3 -0.7,0.7 -1.6,1.1 -2.5,1.1 -0.7,0 -1.4,-0.3 -1.9,-0.8 -2,-2.4 -4.7,-4.3 -8.1,-5.8 -3.4,-1.5 -6.9,-2.2 -10.5,-2.2 -5.5,0 -9.9,1.2 -13.3,3.6 -3.4,2.4 -5.2,5.7 -5.2,9.9 0,4.3 1.6,7.7 4.9,10 3.3,2.3 8,4.4 14.1,6.4 5.3,1.6 9.6,3.2 13,4.8 3.4,1.6 6.1,4 8.2,7 2.1,3 3.2,7 3.2,11.9 0,3.8 -1.1,7.3 -3.3,10.4 -2.2,3.1 -5.3,5.5 -9.2,7.3 -3.9,1.8 -8.4,2.7 -13.4,2.7 -5.5,-0.1 -10.2,-1 -14.4,-2.8 z"
           class="st5" />
        <path
           id="path1082"
           d="m 420.1,415.1 c 0,1 -0.3,1.8 -1,2.4 -0.7,0.6 -1.5,0.9 -2.4,0.9 -0.7,0 -1.4,-0.2 -2,-0.6 -0.6,-0.4 -1,-1 -1.3,-1.6 L 405,395.7 h -36.4 l -8.3,20.5 c -0.6,1.5 -1.6,2.2 -3,2.2 -1,0 -1.8,-0.3 -2.4,-0.8 -0.5,-0.5 -0.8,-1.2 -0.9,-2.1 v -0.3 c 0,-0.4 0,-0.8 0.1,-1 l 29.6,-72.4 c 0.6,-1.5 1.7,-2.2 3.4,-2.2 0.7,0 1.4,0.2 2,0.6 0.6,0.4 1,1 1.3,1.6 l 29.5,72 c 0.1,0.6 0.2,1 0.2,1.3 z M 371.2,389 h 31.1 l -15.7,-38.3 z"
           class="st5" />
        <path
           id="path1084"
           d="m 491.6,340.8 c 0.6,0.6 1,1.4 1,2.4 0,0.9 -0.3,1.7 -1,2.3 -0.6,0.6 -1.4,1 -2.4,1 h -37.3 v 28.1 h 32.3 c 1,0 1.8,0.3 2.4,0.9 0.6,0.6 1,1.4 1,2.4 0,1 -0.3,1.8 -1,2.4 -0.6,0.6 -1.4,0.9 -2.4,0.9 H 451.9 V 415 c 0,1 -0.3,1.8 -1,2.4 -0.6,0.6 -1.4,1 -2.4,1 -1,0 -1.9,-0.3 -2.5,-1 -0.6,-0.6 -1,-1.4 -1,-2.4 v -71.7 c 0,-1 0.3,-1.8 1,-2.4 0.6,-0.6 1.4,-1 2.4,-1 h 40.8 c 0.9,-0.1 1.7,0.3 2.4,0.9 z"
           class="st5" />
        <path
           id="path1086"
           d="m 566.5,412.6 c 0.6,0.7 1,1.5 1,2.4 0,1 -0.3,1.8 -1,2.4 -0.6,0.6 -1.4,0.9 -2.4,0.9 H 523 c -1,0 -1.8,-0.3 -2.4,-1 -0.6,-0.6 -1,-1.4 -1,-2.4 v -71.7 c 0,-1 0.3,-1.8 1,-2.4 0.6,-0.6 1.4,-1 2.4,-1 h 41.1 c 1,0 1.8,0.3 2.4,1 0.6,0.6 1,1.4 1,2.4 0,1 -0.3,1.8 -1,2.4 -0.6,0.6 -1.4,0.9 -2.4,0.9 h -37.4 v 28.1 h 32.4 c 1,0 1.8,0.3 2.4,1 0.6,0.6 1,1.4 1,2.4 0,1 -0.3,1.8 -1,2.4 -0.6,0.6 -1.4,0.9 -2.4,0.9 h -32.4 v 30.5 h 37.4 c 1,-0.2 1.8,0.2 2.4,0.8 z"
           class="st5" />
      </g>
      <g
         id="g1100">
        <path
           id="path1090"
           d="m 635.5,397.7 c 0,-2.8 -1,-5 -3,-6.6 -2,-1.6 -5.5,-3.2 -10.5,-4.9 -5,-1.7 -9.1,-3.3 -12.3,-4.9 -10.3,-5.1 -15.5,-12 -15.5,-20.9 0,-4.4 1.3,-8.3 3.9,-11.7 2.6,-3.4 6.2,-6 10.9,-7.9 4.7,-1.9 10,-2.8 15.9,-2.8 5.7,0 10.9,1 15.4,3.1 4.5,2 8.1,4.9 10.6,8.7 2.5,3.8 3.8,8.1 3.8,12.9 h -19.1 c 0,-3.2 -1,-5.8 -3,-7.5 -2,-1.8 -4.7,-2.7 -8.1,-2.7 -3.4,0 -6.1,0.8 -8.1,2.3 -2,1.5 -3,3.4 -3,5.8 0,2 1.1,3.9 3.3,5.6 2.2,1.7 6,3.4 11.5,5.1 5.5,1.8 10,3.7 13.6,5.7 8.6,5 12.9,11.8 12.9,20.5 0,7 -2.6,12.4 -7.9,16.4 -5.3,4 -12.5,6 -21.6,6 -6.5,0 -12.3,-1.2 -17.5,-3.5 -5.2,-2.3 -9.2,-5.5 -11.8,-9.5 -2.6,-4 -4,-8.7 -4,-13.9 h 19.3 c 0,4.3 1.1,7.4 3.3,9.4 2.2,2 5.8,3 10.7,3 3.2,0 5.7,-0.7 7.5,-2.1 1.9,-1.2 2.8,-3.1 2.8,-5.6 z"
           class="st6" />
        <path
           sodipodi:nodetypes="cccccccccc"
           id="path1092"
           d="m 738.2,354 h -23.9 v 64.8 H 695.1 V 381.31857 354 h -23.5 v -14.8 h 66.6 z"
           class="st6" />
        <path
           id="path1094"
           d="m 796.2,404 h -26.3 l -4.6,14.9 H 744.8 L 774,339.3 h 18 l 29.4,79.6 h -20.6 z m -21.7,-14.8 h 17.1 L 783,361.6 Z"
           class="st6" />
        <path
           id="path1096"
           d="m 865.5,389.2 -7.9,8.6 v 21 h -19.2 v -79.6 h 19.2 v 35.1 l 6.7,-10.1 17.2,-25 h 23.7 l -26.9,35.2 26.9,44.4 h -22.8 z"
           class="st6" />
        <path
           id="path1098"
           d="m 970.7,385 h -30.2 v 19 h 35.7 v 14.8 h -54.9 v -79.6 h 55 V 354 h -35.8 v 16.8 h 30.2 z"
           class="st6" />
      </g>
    </g>
  </g>
</svg>
