<svg xmlns="http://www.w3.org/2000/svg" xmlns:xlink="http://www.w3.org/1999/xlink" viewBox="0 0 836.76 186.85"><defs><linearGradient id="a" x1="59.95" y1="-200.35" x2="239.95" y2="-200.35" gradientTransform="matrix(0.91, 0, 0, -0.91, -37.67, -77.81)" gradientUnits="userSpaceOnUse"><stop offset="0.5" stop-color="#26658a"/><stop offset="1" stop-color="#2d729c"/></linearGradient><linearGradient id="b" x1="157.82" y1="-146.36" x2="129.48" y2="-195.45" gradientTransform="matrix(0.91, 0, 0, -0.91, -37.67, -77.81)" gradientUnits="userSpaceOnUse"><stop offset="0" stop-color="#2d729c" stop-opacity="0.9"/><stop offset="0.45" stop-color="#2d729c"/><stop offset="0.96" stop-color="#396394" stop-opacity="0.9"/></linearGradient><linearGradient id="c" x1="149.24" y1="-205.17" x2="129.59" y2="-239.2" xlink:href="#b"/><linearGradient id="d" x1="144.06" y1="-183.94" x2="125.95" y2="-215.3" xlink:href="#b"/></defs><title>logo-white5</title><path d="M179.55,58.16a2.36,2.36,0,0,0-1.45-2.35c-9-5.16-18.1-10.41-27.15-15.57-17.2-9.87-34.31-19.83-51.51-29.7a2.64,2.64,0,0,0-2.81,0C87.3,16,77.89,21.31,68.56,26.75,51.73,36.43,35,46.12,18.14,55.81a2.66,2.66,0,0,0-1.54,2.71c.09,14.94,0,30,0,44.9V148.6a2.6,2.6,0,0,0,1.45,2.62C28.37,157.11,38.6,163,48.83,168.88q24,13.85,48,27.7a2,2,0,0,0,2.44,0l41.56-23.9L178,151.22a2.65,2.65,0,0,0,1.54-2.44V58.16Zm-7.78,89.26q-17.25,9.92-34.31,19.74-19.16,11-38.3,22.09a1.91,1.91,0,0,1-2.17,0L52.72,163.72c-9.41-5.43-18.92-10.87-28.33-16.3A2.37,2.37,0,0,1,23,145V61.87a2.55,2.55,0,0,1,1.45-2.53C40,50.47,55.53,41.5,71,32.54c8.6-5,17.29-10,25.89-14.94a2.19,2.19,0,0,1,2.54,0Q123.2,31.33,146.87,45c8.33,4.8,16.66,9.6,25.08,14.4a2.2,2.2,0,0,1,1.27,2.17v83.47a2.39,2.39,0,0,1-1.45,2.35Z" transform="translate(-16.6 -10.13)" style="fill:url(#a)"/><path d="M97.53,58l5.71.54c6.06.73,12,2,17.38,5.07a12.87,12.87,0,0,1,5,4.35,6.61,6.61,0,0,1,1,3.44v5.43a2.85,2.85,0,0,1-.27,1.18c-2.44,4.79-4.89,9.59-7.33,14.3a2.36,2.36,0,0,1-1,.9,56.39,56.39,0,0,1-15.84,3.9,77.71,77.71,0,0,1-21-.55c-5.61-.9-11.05-2.35-15.84-5.61a9.26,9.26,0,0,1-4-4.71A8.19,8.19,0,0,1,61,83.69c0-3.62.09-7.24-.09-10.86s1.54-6.16,4.35-8.06a33.47,33.47,0,0,1,13.3-5.07c3.53-.63,7.15-.91,10.78-1.36l4.52-.27Zm-4,23.08c6.7-.09,13-.63,19.28-2.62,3.26-1,6.43-2.17,9-4.53,2.08-1.9,2-3.62,0-5.52a20.59,20.59,0,0,0-6.88-3.8,55.89,55.89,0,0,0-15.85-3.08,68.57,68.57,0,0,0-24.26,2.35c-3.26,1-6.43,2.18-9,4.62-2,1.81-2,3.53,0,5.43a20,20,0,0,0,6.79,3.8c6.79,2.54,13.94,3.26,21,3.35Z" transform="translate(-16.6 -10.13)" style="fill:url(#b)"/><path d="M119.89,120.9c-.54,2.26-1.08,4.34-1.62,6.51-.46,1.63-.91,3.35-1.27,5a1.26,1.26,0,0,1-1,1.09,61.59,61.59,0,0,1-17.11,3.35,74.31,74.31,0,0,1-21-1.45,34.78,34.78,0,0,1-12.67-5,8.87,8.87,0,0,1-3.9-4.61A7.81,7.81,0,0,1,61,123.7v-11a.54.54,0,0,1,.09-.36c.63.9,1.09,1.9,1.72,2.71a19.11,19.11,0,0,0,8.33,5.25A58.58,58.58,0,0,0,90,123.88a66,66,0,0,0,21.91-2.17c2.53-.9,5.16-.81,8-.81Z" transform="translate(-16.6 -10.13)" style="fill:url(#c)"/><path d="M60.87,92.47c2,4.44,6,6.34,10.14,7.88a57.52,57.52,0,0,0,18.29,3.53,73.7,73.7,0,0,0,22.27-2c.81-.19,1.72-.46,2.62-.73a6.27,6.27,0,0,0-.36.91c-2.26,4.43-4.62,8.87-6.79,13.3a1.49,1.49,0,0,1-1.27.91,78.83,78.83,0,0,1-20.19.45,58.15,58.15,0,0,1-14.66-3.26c-3.08-1.17-6.07-2.62-8.33-5.25a6.12,6.12,0,0,1-1.72-4.07V92.47Z" transform="translate(-16.6 -10.13)" style="fill:url(#d)"/><path d="M124.78,117.09h-14.3c5.34-10.41,10.68-20.73,15.93-31,.09,0,.18,0,.18.09-1.72,8.78-3.53,17.57-5.25,26.44h14.31q-9.92,20.5-19.83,40.74c-.09,0-.09,0-.18-.09,3.08-11.95,6.07-24,9.14-36.13Z" transform="translate(-16.6 -10.13)" style="fill:#2de59d"/><path d="M235.77,139.55a36,36,0,0,1-10.86-7.61,2.9,2.9,0,0,1-1.18-2.44,3.41,3.41,0,0,1,1-2.27,3,3,0,0,1,2.17-1,3.42,3.42,0,0,1,2.26,1,25.54,25.54,0,0,0,19.74,8.69A20.59,20.59,0,0,0,261,132.48a10.7,10.7,0,0,0,4.8-9,11.21,11.21,0,0,0-2.36-7.24,18.44,18.44,0,0,0-6.24-4.71,87,87,0,0,0-9.87-3.71,58.32,58.32,0,0,1-10.86-4.25,20,20,0,0,1-7.16-6.25,16.94,16.94,0,0,1-2.71-9.87,16.1,16.1,0,0,1,2.9-9.5,18.39,18.39,0,0,1,8.14-6.52,28,28,0,0,1,12-2.36,32.45,32.45,0,0,1,11.59,2.09,20.17,20.17,0,0,1,8.69,6,5.27,5.27,0,0,1,1.54,2.9,3,3,0,0,1-1,2.08,3.24,3.24,0,0,1-2.26,1,2.49,2.49,0,0,1-1.72-.73,19.6,19.6,0,0,0-7.33-5.25,23.26,23.26,0,0,0-9.51-2c-5,0-9,1.09-12,3.26a11.17,11.17,0,0,0-.27,18c3,2.09,7.24,4,12.77,5.8a87.25,87.25,0,0,1,11.76,4.34,18.68,18.68,0,0,1,7.43,6.34c1.9,2.72,2.89,6.34,2.89,10.77a16,16,0,0,1-3,9.42,20.45,20.45,0,0,1-8.33,6.61,28.75,28.75,0,0,1-12.13,2.44,34.11,34.11,0,0,1-13-2.53Z" transform="translate(-16.6 -10.13)" style="fill:#070707"/><path d="M349.84,138.1a2.67,2.67,0,0,1-.91,2.17,3.31,3.31,0,0,1-4,.27,3.6,3.6,0,0,1-1.18-1.45l-7.6-18.56H303.22l-7.52,18.56a2.76,2.76,0,0,1-2.71,2,3.34,3.34,0,0,1-2.18-.72,3.09,3.09,0,0,1-.81-1.9v-.27a2.57,2.57,0,0,1,.09-.91l26.8-65.54a3,3,0,0,1,3.07-2,3.25,3.25,0,0,1,1.81.54A3.58,3.58,0,0,1,323,71.74l26.71,65.18a9.55,9.55,0,0,1,.18,1.18Zm-44.27-23.63h28.15L319.51,79.8Z" transform="translate(-16.6 -10.13)" style="fill:#070707"/><path d="M414.57,70.83a3,3,0,0,1,.9,2.18,2.63,2.63,0,0,1-.9,2.08,3,3,0,0,1-2.18.9H378.63v25.44h29.24a2.91,2.91,0,0,1,2.17.82,3,3,0,0,1,.91,2.17,2.68,2.68,0,0,1-.91,2.17,2.91,2.91,0,0,1-2.17.82H378.63V138a2.7,2.7,0,0,1-.91,2.17,3,3,0,0,1-2.17.9,2.86,2.86,0,0,1-2.26-.9,3,3,0,0,1-.91-2.17V73.1a2.69,2.69,0,0,1,.91-2.18,3,3,0,0,1,2.17-.9h36.93a2.88,2.88,0,0,1,2.18.81Z" transform="translate(-16.6 -10.13)" style="fill:#070707"/><path d="M482.37,135.83a3.33,3.33,0,0,1,.91,2.18,2.67,2.67,0,0,1-.91,2.17,2.93,2.93,0,0,1-2.17.81H443a2.69,2.69,0,0,1-2.17-.9,3,3,0,0,1-.91-2.17V73a2.72,2.72,0,0,1,.91-2.18,3,3,0,0,1,2.17-.9H480.2a2.68,2.68,0,0,1,2.17.9,3,3,0,0,1,.91,2.18,2.67,2.67,0,0,1-.91,2.17,2.93,2.93,0,0,1-2.17.81H446.34v25.44h29.33a2.69,2.69,0,0,1,2.18.91,3,3,0,0,1,.9,2.17,2.68,2.68,0,0,1-.9,2.17,2.93,2.93,0,0,1-2.18.82H446.34v27.61H480.2a2.33,2.33,0,0,1,2.17.72Z" transform="translate(-16.6 -10.13)" style="fill:#070707"/><path d="M544.84,122.35a7.24,7.24,0,0,0-2.72-6c-1.81-1.45-5-2.9-9.5-4.44a90,90,0,0,1-11.14-4.43c-9.32-4.62-14-10.86-14-18.92A17,17,0,0,1,511,78a22.67,22.67,0,0,1,9.87-7.16,38.09,38.09,0,0,1,14.39-2.53,32.64,32.64,0,0,1,13.94,2.81,21.72,21.72,0,0,1,9.6,7.87,20.83,20.83,0,0,1,3.44,11.68H544.93a8.54,8.54,0,0,0-2.72-6.79,10.54,10.54,0,0,0-7.33-2.44,11.93,11.93,0,0,0-7.33,2.08,6.26,6.26,0,0,0-2.72,5.25c0,1.81,1,3.53,3,5.07s5.43,3.08,10.41,4.62a71.11,71.11,0,0,1,12.31,5.16c7.79,4.52,11.68,10.68,11.68,18.55,0,6.34-2.35,11.23-7.15,14.85s-11.32,5.43-19.56,5.43a38.55,38.55,0,0,1-15.84-3.17,23.78,23.78,0,0,1-10.68-8.6,22.7,22.7,0,0,1-3.62-12.58h17.47c0,3.89,1,6.7,3,8.51s5.25,2.72,9.68,2.72a10.79,10.79,0,0,0,6.79-1.91,5.55,5.55,0,0,0,2.54-5.06Z" transform="translate(-16.6 -10.13)" style="fill:#005779"/><path d="M637.81,82.78H616.17v58.67H598.79V82.78H577.52V69.39h60.29Z" transform="translate(-16.6 -10.13)" style="fill:#005779"/><path d="M690.32,128.05H666.51l-4.17,13.49H643.79l26.43-72.06h16.3l26.61,72.06H694.48Zm-19.65-13.4h15.48l-7.78-25Z" transform="translate(-16.6 -10.13)" style="fill:#005779"/><path d="M753.05,114.65l-7.15,7.79v19H728.52V69.39H745.9v31.77L752,92l15.57-22.63H789l-24.35,31.86L789,141.45H768.35Z" transform="translate(-16.6 -10.13)" style="fill:#005779"/><path d="M848.29,110.85H821v17.2h32.32v13.4h-49.7V69.39h49.79V82.78H821V98h27.34Z" transform="translate(-16.6 -10.13)" style="fill:#005779"/></svg>