<svg xmlns="http://www.w3.org/2000/svg" xmlns:xlink="http://www.w3.org/1999/xlink" viewBox="0 0 135 154.8">
  <defs>
    <linearGradient id="a" data-name="Dégradé sans nom" x1="200" y1="-322.95" x2="380" y2="-322.95" gradientTransform="matrix(0.75, 0, 0, -0.75, -150, -164.81)" gradientUnits="userSpaceOnUse">
      <stop offset="0.5" stop-color="#26658a"/>
      <stop offset="1" stop-color="#2d729c"/>
    </linearGradient>
    <linearGradient id="b" data-name="Dégradé sans nom 2" x1="297.87" y1="-268.96" x2="269.52" y2="-318.05" gradientTransform="matrix(0.75, 0, 0, -0.75, -150, -164.81)" gradientUnits="userSpaceOnUse">
      <stop offset="0" stop-color="#2d729c" stop-opacity="0.9"/>
      <stop offset="0.45" stop-color="#2d729c"/>
      <stop offset="0.96" stop-color="#396394" stop-opacity="0.9"/>
    </linearGradient>
    <linearGradient id="c" data-name="Dégradé sans nom 3" x1="289.29" y1="-327.77" x2="269.64" y2="-361.8" xlink:href="#b"/>
    <linearGradient id="d" data-name="Dégradé sans nom 4" x1="284.1" y1="-306.55" x2="266" y2="-337.91" xlink:href="#b"/>
  </defs>
  <title>logo</title>
  <g>
    <path d="M135,39.79a2,2,0,0,0-1.2-1.95c-7.5-4.28-15-8.63-22.5-12.9C97.05,16.76,82.87,8.51,68.62.34a2.16,2.16,0,0,0-2.32,0c-7.73,4.5-15.53,8.92-23.25,13.42-13.95,8-27.82,16-41.77,24.08A2.21,2.21,0,0,0,0,40.09c.08,12.37,0,24.82,0,37.2v37.42a2.18,2.18,0,0,0,1.2,2.18Q14,124.2,26.7,131.51q19.91,11.48,39.75,23a1.68,1.68,0,0,0,2,0l34.43-19.8,30.82-17.77a2.21,2.21,0,0,0,1.28-2V39.79Zm-6.45,73.95c-9.53,5.47-19,11-28.43,16.35q-15.86,9.1-31.72,18.3a1.6,1.6,0,0,1-1.8,0L29.92,127.24c-7.8-4.5-15.67-9-23.47-13.5a2,2,0,0,1-1.13-2V42.86a2.14,2.14,0,0,1,1.2-2.1C19.35,33.41,32.25,26,45.07,18.56,52.2,14.44,59.4,10.31,66.53,6.19a1.79,1.79,0,0,1,2.09,0q19.69,11.35,39.31,22.72c6.89,4,13.79,8,20.77,11.93a1.82,1.82,0,0,1,1.05,1.8v69.15a2,2,0,0,1-1.2,1.95Z" transform="translate(0 0)" style="fill: url(#a)"/>
    <path d="M67.05,39.64l4.72.45c5,.6,10,1.65,14.4,4.2a10.61,10.61,0,0,1,4.13,3.6,5.43,5.43,0,0,1,.82,2.85v4.5a2.28,2.28,0,0,1-.22,1c-2,4-4.05,7.95-6.08,11.85a2,2,0,0,1-.82.75A47,47,0,0,1,70.87,72a64.57,64.57,0,0,1-17.4-.45c-4.65-.75-9.15-2-13.12-4.65a7.64,7.64,0,0,1-3.3-3.9,6.67,6.67,0,0,1-.3-2.1c0-3,.07-6-.08-9a7.27,7.27,0,0,1,3.6-6.68,27.94,27.94,0,0,1,11-4.2c2.92-.52,5.92-.75,8.92-1.12L64,39.71Zm-3.3,19.12a53.85,53.85,0,0,0,16-2.17,18.42,18.42,0,0,0,7.43-3.75c1.72-1.58,1.65-3,0-4.58a17,17,0,0,0-5.7-3.15,46.38,46.38,0,0,0-13.12-2.55,56.73,56.73,0,0,0-20.11,1.95,18.36,18.36,0,0,0-7.5,3.83c-1.65,1.5-1.65,2.92,0,4.5A16.67,16.67,0,0,0,46.35,56,51.08,51.08,0,0,0,63.75,58.76Z" transform="translate(0 0)" style="fill: url(#b)"/>
    <path d="M85.57,91.76c-.45,1.88-.9,3.6-1.35,5.4-.37,1.35-.74,2.78-1,4.13a1.05,1.05,0,0,1-.83.9A51.08,51.08,0,0,1,68.17,105a61.19,61.19,0,0,1-17.4-1.2,29,29,0,0,1-10.5-4.12,7.34,7.34,0,0,1-3.22-3.83,6.32,6.32,0,0,1-.3-1.72V85a.44.44,0,0,1,.08-.3c.52.75.9,1.58,1.42,2.25a15.85,15.85,0,0,0,6.9,4.35,48.85,48.85,0,0,0,15.67,2.93A54.9,54.9,0,0,0,79,92.44a19.23,19.23,0,0,1,6.6-.68Z" transform="translate(0 0)" style="fill: url(#c)"/>
    <path d="M36.67,68.21c1.65,3.68,4.95,5.25,8.4,6.53a47.69,47.69,0,0,0,15.16,2.92A60.8,60.8,0,0,0,78.68,76c.67-.15,1.42-.37,2.17-.6a4.84,4.84,0,0,0-.3.75c-1.87,3.68-3.82,7.35-5.62,11a1.27,1.27,0,0,1-1.06.75,65.85,65.85,0,0,1-16.72.37A48.34,48.34,0,0,1,45,85.61a16.26,16.26,0,0,1-6.9-4.35,5.07,5.07,0,0,1-1.43-3.37Z" transform="translate(0 0)" style="fill: url(#d)"/>
    <path d="M89.62,88.61H77.78C82.2,80,86.62,71.44,91,62.89c.08,0,.15,0,.15.07-1.42,7.28-2.92,14.55-4.35,21.9H98.62q-8.2,17-16.42,33.75c-.08,0-.08,0-.15-.07,2.55-9.9,5-19.88,7.57-29.93Z" transform="translate(0 0)" style="fill: #2de59d"/>
  </g> 
</svg>
